<svg width="256px" height="125px" preserveAspectRatio="xMidYMid" version="1.1" viewBox="0 0 256 125" xmlns="http://www.w3.org/2000/svg">
<path id="a" d="m184.31 67.704c13.469-7.736 26.902-15.535 40.417-23.191 12.828-7.268 27.921-0.565 30.829 13.579 1.683 8.182-1.97 17.021-9.357 21.326-24.218 14.113-48.471 28.17-72.845 42.012-7.544 4.284-15.315 3.496-22.19-1.754-6.984-5.33-9.185-12.682-7.547-21.239 1.87-6.514 6.15-10.869 11.987-14.127 9.651-5.386 19.145-11.056 28.706-16.606" fill="#FBBC04"/>
<path id="b" d="m194.2 62.079c-13.435-7.796-26.904-15.531-40.292-23.406-12.709-7.476-14.449-23.898-3.655-33.49 6.244-5.547 15.725-6.804 23.147-2.559 24.332 13.917 48.632 27.893 72.806 42.08 7.482 4.391 10.684 11.516 9.577 20.095-1.125 8.712-6.391 14.294-14.62 17.155-6.577 1.638-12.488 0.108-18.228-3.318-9.491-5.665-19.148-11.053-28.735-16.557" fill="#0F9D58"/>
<path id="c" d="m71.752 56.563c-8.621 4.898-17.247 9.787-25.859 14.7-5.038 2.874-10.02 5.846-15.084 8.672-10.203 5.695-22.325 2.357-28.11-7.674-5.521-9.572-2.348-21.982 7.478-27.718 24.025-14.023 48.112-27.944 72.286-41.709 7.414-4.222 15.106-3.691 21.962 1.356 7.236 5.327 9.605 12.823 7.98 21.611-1.008 2.126-1.61 4.619-3.119 6.294-2.455 2.725-5.245 5.334-8.351 7.25-9.612 5.927-19.439 11.505-29.183 17.218" fill="#EA4335"/>
<path id="d" d="m61.867 62.057c8.553 5.016 17.1 10.043 25.661 15.045 5.007 2.926 10.072 5.755 15.051 8.726 10.034 5.99 13.205 18.156 7.41 28.181-5.53 9.568-17.863 13.026-27.744 7.383-24.157-13.795-48.256-27.693-72.264-41.746-7.363-4.31-10.749-11.237-9.806-19.698 0.995-8.931 6.302-14.73 14.725-17.717 2.345-0.189 4.805-0.915 7.011-0.445 3.587 0.764 7.242 1.875 10.454 3.607 9.939 5.36 19.683 11.082 29.502 16.664" fill="#4285F4"/>
</svg>
